HIERARCHY
ROOT pelvis
{
  OFFSET 0 100 0
  CHANNELS 6 Xposition Yposition Zposition Zrotation Xrotation Yrotation
  JOINT pelvis_right_femur
  {
    OFFSET -10.78128 -3.44521 -0.5502486
    CHANNELS 3 Zrotation Xrotation Yrotation
    JOINT right_femur_tibia
    {
      OFFSET -0.8047443 -44.0398 -0.1307829
      CHANNELS 3 Zrotation Xrotation Yrotation
      JOINT right_tibia_foot
      {
        OFFSET 3.006224 -47.83518 -5
        CHANNELS 3 Zrotation Xrotation Yrotation
        End Site
        {
          OFFSET 0 -5 15
        }
      }
    }
  }
  JOINT pelvis_left_femur
  {
    OFFSET 10.78128 -3.44521 -0.5502486
    CHANNELS 3 Zrotation Xrotation Yrotation
    JOINT left_femur_tibia
    {
      OFFSET 0.8047443 -44.0398 -0.1307829
      CHANNELS 3 Zrotation Xrotation Yrotation
      JOINT left_tibia_foot
      {
        OFFSET -4.370144 -48.10324 -4.275266
        CHANNELS 3 Zrotation Xrotation Yrotation
        End Site
        {
          OFFSET 0 -5 15
        }
      }
    }
  }
  JOINT pelvis_spine1
  {
    OFFSET 0 6.468898 -3.129235
    CHANNELS 3 Zrotation Xrotation Yrotation
    JOINT spine1
    {
      OFFSET 0 23.15396 4.99043
      CHANNELS 3 Zrotation Xrotation Yrotation
      JOINT spine2
      {
        OFFSET 0 20.79997 -5.064912
        CHANNELS 3 Zrotation Xrotation Yrotation
        JOINT neck
        {
          OFFSET 0 14.38658 9.616178
          CHANNELS 3 Zrotation Xrotation Yrotation
          End Site
          {
            OFFSET 0 20 0
          }
        }
      }
      JOINT right_manubrium
      {
        OFFSET -5.722621 16.35077 3.967754
        CHANNELS 3 Zrotation Xrotation Yrotation
        JOINT right_clavicle
        {
          OFFSET -13.16364 1.694482 -4.693211
          CHANNELS 3 Zrotation Xrotation Yrotation
          JOINT right_humerus
          {
            OFFSET -28.5034 -0.3100689 -2.792744
            CHANNELS 3 Zrotation Xrotation Yrotation
            JOINT right_radius
            {
              OFFSET -25.15693 0.02248979 -1.271978
              CHANNELS 3 Zrotation Xrotation Yrotation
              End Site
              {
                OFFSET -15 0 0
              }
            }
          }
        }
      }
      JOINT left_manubrium
      {
        OFFSET 5.722621 16.35077 3.967754
        CHANNELS 3 Zrotation Xrotation Yrotation
        JOINT left_clavicle
        {
          OFFSET 13.16364 1.694482 -4.693211
          CHANNELS 3 Zrotation Xrotation Yrotation
          JOINT left_humerus
          {
            OFFSET 29.39168 -1.063119 -2.237045
            CHANNELS 3 Zrotation Xrotation Yrotation
            JOINT left_radius
            {
              OFFSET 24.59957 -0.9528479 0.9047498
              CHANNELS 3 Zrotation Xrotation Yrotation
              End Site
              {
                OFFSET 15 -0 -0
              }
            }
          }
        }
      }
    }
  }
}
MOTION
Frames: 19
Frame Time: 0.0416666666667
-908.7243 97.9326 2822.94 -3.424977 -4.320688 -40.45498 3.115179 -24.75306 -2.237213 -0 7.407473 -0 -7.027838 3.023923 -4.748939 -4.332266 17.5952 -7.422662 -0 25.48261 -0 -2.709199 -17.33379 13.59052 0.08490931 -1.856944 4.081569 0.3586447 14.07959 -7.04524 1.205535 22.52787 5.232071 3.155924 -19.57385 5.735736 -2.342585 -21.04137 11.81042 94.38115 19.47159 -20.5911 -0 0 10.39662 -23.01419 10.23102 8.983504 6.093449 -26.52071 -7.917742 -86.94222 13.54781 15.65967 0 0 -22.61024 12.76077 14.69502 -3.289457
-913.6103 97.73113 2828.027 -3.946451 -4.552391 -40.79172 4.272817 -22.24552 -1.051971 -0 8.812661 -0 -7.178994 2.620965 -5.266387 -4.132463 17.11923 -7.147638 -0 33.5936 -0 -2.863947 -14.64893 13.62873 0.152766 -1.845269 4.088495 0.4177405 14.10577 -7.097406 1.229746 22.48144 5.148622 2.971451 -19.75598 5.802367 -2.550715 -21.19406 11.78172 94.63036 19.18338 -20.6638 -0 0 10.42396 -22.87485 10.21445 9.021651 5.945337 -26.45507 -7.882626 -86.93972 13.80596 15.87501 0 0 -22.78487 12.36177 14.52487 -2.649131
-918.5678 98.16068 2833.079 -4.646277 -5.077 -41.33124 5.243398 -18.44213 0.05354523 -0 11.23329 -0 -7.6086 1.980706 -5.561561 -3.868061 15.14572 -6.882661 -0 42.34751 -0 -2.923516 -11.62817 13.94299 0.2816333 -1.862914 4.236552 0.4708528 14.22284 -7.091838 1.252182 22.35697 4.974667 2.666127 -20.02247 5.854685 -2.839432 -21.68086 11.78627 94.7854 18.81861 -20.39334 -0 0 10.94684 -22.80212 10.33879 9.267039 5.635278 -26.23399 -7.816933 -87.19727 14.01112 16.84445 0 0 -22.46297 11.76159 14.30095 -1.682538
-923.4242 99.12474 2837.928 -5.38502 -5.745326 -42.05827 5.929358 -13.71667 0.9374937 -0 13.59577 -0 -8.129371 0.880522 -5.532658 -3.489621 11.4133 -6.591469 -0 50.32218 -0 -2.984883 -8.792718 14.53965 0.4722158 -1.921209 4.504215 0.5161852 14.43453 -7.044605 1.273035 22.15808 4.729145 2.262963 -20.35786 5.90077 -3.202629 -22.46617 11.81928 94.88784 18.38236 -19.86784 -0 0 11.90056 -22.78756 10.61823 9.659959 5.20863 -25.91862 -7.735343 -87.68593 14.1034 18.45471 0 0 -21.75392 11.07895 14.06782 -0.5511706
-928.0303 100.3716 2842.462 -5.995261 -6.345241 -42.92917 6.309849 -8.573855 1.540533 -0 14.95385 -0 -8.456081 -0.8758953 -5.173165 -2.943387 5.964454 -6.20424 -0 55.85501 -0 -3.093708 -6.619864 15.35563 0.7141253 -2.021023 4.868732 0.5552674 14.72759 -6.97432 1.295795 21.88521 4.427076 1.778901 -20.73362 5.949196 -3.615789 -23.48931 11.87093 94.95586 17.88342 -19.17215 -0 0 13.22111 -22.80462 11.05334 10.14711 4.704992 -25.54445 -7.641413 -88.35031 14.06912 20.54795 0 0 -20.78711 10.36373 13.82626 0.6701249
-932.3108 101.5647 2846.675 -6.335561 -6.676615 -43.87612 6.420947 -3.503256 1.860822 -0 14.81687 -0 -8.364977 -3.316474 -4.554679 -2.182984 -0.7327124 -5.646486 -0 57.5948 -0 -3.20815 -5.356189 16.25764 0.9864291 -2.15134 5.31621 0.5881873 15.07294 -6.890808 1.326441 21.53707 4.077877 1.225162 -21.11085 6.005875 -4.038582 -24.68134 11.92881 94.9658 17.3353 -18.35071 -0 0 14.87376 -22.82194 11.62558 10.69733 4.151405 -25.10564 -7.523994 -89.13334 13.94567 22.97202 0 0 -19.6615 9.588325 13.52722 2.00709
-936.2824 102.3949 2850.676 -6.34193 -6.630893 -44.82651 6.317318 1.173031 1.933577 -0 13.32943 -0 -7.825779 -6.245132 -3.785716 -1.19511 -7.855829 -4.894232 -0 55.05715 -0 -3.243194 -4.923385 17.08478 1.259536 -2.292273 5.843919 0.6080754 15.42985 -6.78853 1.371836 21.1153 3.689824 0.6163645 -21.44095 6.072128 -4.418396 -25.97294 11.98066 94.85127 16.75644 -17.39887 -0 0 16.85644 -22.81652 12.29317 11.29879 3.569016 -24.56235 -7.360799 -89.9952 13.80375 25.60034 0 0 -18.42613 8.680949 13.08867 3.542236
-940.033 102.6714 2854.628 -6.045712 -6.231346 -45.72212 6.035355 5.350843 1.834816 -0 11.1674 -0 -6.988014 -9.319048 -2.991223 -0.04315894 -14.47174 -4.026343 -0 48.81256 -0 -3.16382 -5.00947 17.72093 1.497741 -2.420525 6.450075 0.5991395 15.75134 -6.648862 1.436883 20.63361 3.278422 -0.01488148 -21.66566 6.142718 -4.694078 -27.28618 12.01773 94.52411 16.1752 -16.28839 -0 0 19.16159 -22.78312 12.99028 11.9421 2.986798 -23.87053 -7.130888 -90.91153 13.71624 28.30811 0 0 -17.09534 7.587733 12.4368 5.328854
-943.6819 102.3533 2858.685 -5.554683 -5.61862 -46.52694 5.580323 9.069026 1.681981 -0 9.252194 -0 -6.057142 -12.14232 -2.300413 1.096621 -19.7962 -3.237749 -0 40.23723 -0 -3.024493 -5.271734 18.14665 1.663957 -2.514962 7.11606 0.541406 15.99107 -6.45055 1.520976 20.128 2.872801 -0.6084477 -21.72481 6.204127 -4.804719 -28.52084 12.03848 93.91221 15.63754 -15.01069 -0 0 21.71224 -22.73805 13.6324 12.60356 2.449357 -23.01976 -6.831325 -91.85441 13.73049 30.9332 0 0 -15.68044 6.32891 11.55757 7.310852
-947.3495 101.5358 2862.959 -5.015678 -4.996296 -47.22565 4.945701 12.39075 1.591716 -0 8.461456 -0 -5.20631 -14.26857 -1.80529 1.957857 -23.35216 -2.784827 -0 31.07085 -0 -2.922273 -5.492009 18.43502 1.728912 -2.560978 7.794058 0.4225844 16.11349 -6.184819 1.615625 19.65753 2.513552 -1.085977 -21.57961 6.23635 -4.708977 -29.55762 12.04977 93.00283 15.20648 -13.61241 -0 0 24.31679 -22.71328 14.13172 13.24214 2.008482 -22.05731 -6.487051 -92.77287 13.85761 33.26819 0 0 -14.21904 5.009896 10.52758 9.307786
-951.1399 100.4166 2867.513 -4.572559 -4.56094 -47.81752 4.147601 15.31993 1.611603 -0 9.416572 -0 -4.573166 -15.18518 -1.510692 2.289173 -25.01587 -2.866292 -0 22.99289 -0 -2.927734 -5.614575 18.69775 1.682628 -2.553213 8.4126 0.2502997 16.10542 -5.867289 1.705683 19.28806 2.241017 -1.380201 -21.24187 6.220698 -4.408555 -30.28828 12.06241 91.86864 14.94672 -12.20193 -0 0 26.68991 -22.74027 14.42245 13.81131 1.702772 -21.08244 -6.144566 -93.59098 14.07883 35.10477 0 0 -12.78935 3.779876 9.49539 11.08135
-955.1293 99.25461 2872.375 -4.327793 -4.440439 -48.30764 3.247042 17.76318 1.688572 -0 12.37743 -0 -4.269828 -14.41259 -1.326984 1.978257 -24.97296 -3.510523 -0 17.26729 -0 -3.047963 -5.703172 19.01537 1.540468 -2.496436 8.900067 0.05348938 15.98208 -5.537112 1.774686 19.06612 2.080892 -1.465084 -20.7815 6.150204 -3.956789 -30.65567 12.08365 90.65445 14.90011 -10.92149 -0 0 28.54415 -22.83303 14.48511 14.27386 1.542349 -20.21331 -5.852509 -94.22829 14.35747 36.30271 0 0 -11.50142 2.773206 8.619932 12.43224
-959.3515 98.32151 2877.534 -4.318923 -4.661137 -48.69543 2.343212 19.51683 1.709267 -0 17.26406 -0 -4.354794 -11.72241 -1.122265 1.090574 -23.60304 -4.565422 -0 14.48747 -0 -3.221629 -5.872459 19.38992 1.337663 -2.404171 9.210274 -0.1300442 15.78183 -5.242318 1.811363 19.00169 2.036324 -1.363757 -20.2983 6.034424 -3.440258 -30.67273 12.11336 89.52814 15.06768 -9.902212 -0 0 29.69441 -22.98171 14.35218 14.60879 1.510381 -19.54744 -5.643891 -94.6277 14.64824 36.83089 0 0 -10.46749 2.073344 8.010387 13.25904
-963.7798 97.84956 2882.935 -4.517836 -5.153606 -48.96285 1.539113 20.27354 1.587232 -0 23.75854 -0 -4.787924 -7.348617 -0.813812 -0.1929043 -21.32567 -5.794462 -0 14.48765 -0 -3.331883 -6.228634 19.74306 1.115118 -2.294822 9.332026 -0.2698003 15.55133 -5.022053 1.812756 19.07224 2.090935 -1.129887 -19.87878 5.893859 -2.944758 -30.4057 12.14677 88.62712 15.4116 -9.230167 -0 0 30.10053 -23.16004 14.08899 14.809 1.577372 -19.13944 -5.531506 -94.76973 14.90462 36.75291 0 0 -9.768426 1.71079 7.707436 13.55306
-968.318 97.98085 2888.469 -4.84886 -5.789464 -49.06845 0.8988582 19.66629 1.33433 -0 31.37007 -0 -5.404486 -2.053323 -0.4567563 -1.65823 -18.46068 -6.986545 -0 16.44355 -0 -3.237441 -6.837153 19.95461 0.9057226 -2.18648 9.279849 -0.3509016 15.33019 -4.897173 1.782437 19.24197 2.219778 -0.8189299 -19.56991 5.748968 -2.529044 -29.93667 12.17944 88.03049 15.87593 -8.938876 -0 0 29.83096 -23.33931 13.76329 14.87528 1.716421 -19.00351 -5.5145 -94.66701 15.08548 36.17537 0 0 -9.437417 1.682552 7.704096 13.35356
-972.8107 98.72552 2893.981 -5.214492 -6.428943 -48.95423 0.4281875 17.37336 1.054786 -0 39.36983 -0 -5.938412 3.028051 -0.2682556 -3.100685 -15.16002 -8.006657 -0 19.12053 -0 -2.826623 -7.7207 19.91621 0.7279727 -2.09269 9.077949 -0.3728922 15.14254 -4.871111 1.726601 19.4798 2.400903 -0.4682836 -19.37969 5.612967 -2.218121 -29.33185 12.20942 87.76131 16.40979 -9.022645 -0 0 28.99451 -23.49923 13.42311 14.8106 1.911917 -19.12919 -5.586614 -94.34871 15.16031 35.19722 0 0 -9.467721 1.974612 7.975408 12.70418
-977.085 99.94201 2899.296 -5.519766 -6.958911 -48.5688 0.09728647 13.28055 0.8441002 -0 46.63835 -0 -6.14487 6.756768 -0.5167166 -4.336219 -11.44571 -8.786039 -0 21.21942 -0 -2.083113 -8.876817 19.57406 0.5868498 -2.020621 8.749293 -0.3445181 14.99608 -4.93566 1.651427 19.76678 2.621897 -0.09287964 -19.2916 5.492086 -2.010966 -28.62897 12.23601 87.80444 16.97846 -9.455504 -0 0 27.69146 -23.63119 13.09085 14.61629 2.161175 -19.49563 -5.740079 -93.84745 15.11223 33.88396 0 0 -9.834091 2.574927 8.493517 11.63396
-981.0159 101.3564 2904.266 -5.68996 -7.309328 -47.90002 -0.1220931 7.630436 0.6627565 -0 51.64886 -0 -6.012497 8.467034 -1.282173 -5.219639 -7.336221 -9.290903 -0 21.77621 -0 -1.129787 -10.29862 18.94805 0.4782735 -1.971463 8.312933 -0.2791002 14.88565 -5.076609 1.562779 20.09383 2.880117 0.3081771 -19.27878 5.390229 -1.892432 -27.84155 12.25736 88.1248 17.55998 -10.20488 -0 0 26.00028 -23.73507 12.76888 14.29042 2.471432 -20.07771 -5.965176 -93.19401 14.94008 32.2674 0 0 -10.51307 3.473538 9.225659 10.1634
-984.5864 102.6303 2908.828 -5.678007 -7.446363 -46.99892 -0.2538291 1.03452 0.3163306 -0 52.859 -0 -5.843169 8.296947 -2.304962 -5.683885 -2.97534 -9.509523 -0 20.5026 -0 -0.2112211 -11.98174 18.12508 0.3940033 -1.942178 7.786859 -0.1915032 14.7983 -5.277549 1.467239 20.45501 3.177944 0.7404994 -19.31256 5.313228 -1.842992 -26.97177 12.26892 88.67911 18.1341 -11.23633 -0 0 23.99003 -23.81248 12.44914 13.82924 2.853805 -20.84505 -6.248035 -92.41838 14.66025 30.36251 0 0 -11.49237 4.651912 10.12428 8.325696
